<?xml version="1.0" encoding="utf-8"?>
<!-- Generator: Adobe Illustrator 25.0.1, SVG Export Plug-In . SVG Version: 6.00 Build 0)  -->
<svg version="1.1" id="Layer_1" xmlns="http://www.w3.org/2000/svg" xmlns:xlink="http://www.w3.org/1999/xlink" x="0px" y="0px"
	 viewBox="0 0 360 360" style="enable-background:new 0 0 360 360;" xml:space="preserve">
<style type="text/css">
	.st0{fill:#FFFFFF;}
</style>
<g>
	<path class="st0" d="M-69.97,94.24H-137c-2.21,0-4-1.79-4-4v0c0-2.21,1.79-4,4-4h67.03c2.21,0,4,1.79,4,4v0
		C-65.97,92.45-67.76,94.24-69.97,94.24z"/>
	<path class="st0" d="M-72.84,93.03L-95.85,69.4c-1.54-1.58-1.51-4.12,0.08-5.66v0c1.58-1.54,4.12-1.51,5.66,0.08l23.01,23.64
		c1.54,1.58,1.51,4.12-0.08,5.66v0C-68.76,94.65-71.29,94.62-72.84,93.03z"/>
	<path class="st0" d="M-72.84,87.45l-23.01,23.64c-1.54,1.58-1.51,4.12,0.08,5.66v0c1.58,1.54,4.12,1.51,5.66-0.08l23.01-23.64
		c1.54-1.58,1.51-4.12-0.08-5.66v0C-68.76,85.84-71.29,85.87-72.84,87.45z"/>
</g>
<path class="st0" d="M-122.03,140.43h-24.22c-16.55,0-29.97-13.42-29.97-29.97V70.02c0-16.55,13.42-29.97,29.97-29.97h24.22
	c2.49,0,4.5,2.01,4.5,4.5v0c0,2.49-2.01,4.5-4.5,4.5h-24.22c-11.58,0-20.97,9.39-20.97,20.97v40.44c0,11.58,9.39,20.97,20.97,20.97
	h24.22c2.49,0,4.5,2.01,4.5,4.5l0,0C-117.53,138.42-119.54,140.43-122.03,140.43z"/>
</svg>
