<?xml version="1.0" encoding="utf-8"?>
<!-- Generator: Adobe Illustrator 25.0.1, SVG Export Plug-In . SVG Version: 6.00 Build 0)  -->
<svg version="1.1" id="Layer_1" xmlns="http://www.w3.org/2000/svg" xmlns:xlink="http://www.w3.org/1999/xlink" x="0px" y="0px"
	 viewBox="0 0 360 360" style="enable-background:new 0 0 360 360;" xml:space="preserve">
<style type="text/css">
	.st0{fill:#FFFFFF;}
</style>
<g>
	<path class="st0" d="M231.12,194.62h-67.03c-2.21,0-4-1.79-4-4l0,0c0-2.21,1.79-4,4-4h67.03c2.21,0,4,1.79,4,4l0,0
		C235.12,192.83,233.33,194.62,231.12,194.62z"/>
	<path class="st0" d="M228.26,193.41l-23.01-23.64c-1.54-1.58-1.51-4.12,0.08-5.66l0,0c1.58-1.54,4.12-1.51,5.66,0.08l23.01,23.64
		c1.54,1.58,1.51,4.12-0.08,5.66l0,0C232.33,195.03,229.8,194.99,228.26,193.41z"/>
	<path class="st0" d="M228.26,187.83l-23.01,23.64c-1.54,1.58-1.51,4.12,0.08,5.66l0,0c1.58,1.54,4.12,1.51,5.66-0.08l23.01-23.64
		c1.54-1.58,1.51-4.12-0.08-5.66l0,0C232.33,186.21,229.8,186.25,228.26,187.83z"/>
</g>
<path class="st0" d="M179.07,240.81h-24.22c-16.55,0-29.97-13.42-29.97-29.97V170.4c0-16.55,13.42-29.97,29.97-29.97h24.22
	c2.49,0,4.5,2.01,4.5,4.5l0,0c0,2.49-2.01,4.5-4.5,4.5h-24.22c-11.58,0-20.97,9.39-20.97,20.97v40.44
	c0,11.58,9.39,20.97,20.97,20.97h24.22c2.49,0,4.5,2.01,4.5,4.5l0,0C183.57,238.8,181.55,240.81,179.07,240.81z"/>
</svg>
