<?xml version="1.0" encoding="utf-8"?>
<!-- Generator: Adobe Illustrator 25.0.1, SVG Export Plug-In . SVG Version: 6.00 Build 0)  -->
<svg version="1.1" id="Layer_1" xmlns="http://www.w3.org/2000/svg" xmlns:xlink="http://www.w3.org/1999/xlink" x="0px" y="0px"
	 viewBox="0 0 360 360" style="enable-background:new 0 0 360 360;" xml:space="preserve">
<style type="text/css">
	.st0{fill:#231F20;}
</style>
<path class="st0" d="M283.13,146.4H102.6c-10.31,0-18.7,8.39-18.7,18.7v69.47c0,10.31,8.39,18.7,18.7,18.7h180.53
	c10.32,0,18.71-8.39,18.71-18.7V165.1C301.84,154.79,293.45,146.4,283.13,146.4z M297.84,234.57c0,8.11-6.6,14.7-14.71,14.7H102.6
	c-8.1,0-14.7-6.59-14.7-14.7V165.1c0-4.31,1.87-8.2,4.84-10.9c1.18-1.06,2.53-1.94,4.01-2.58c1.79-0.78,3.77-1.22,5.85-1.22h180.53
	c2.01,0,3.94,0.41,5.69,1.15c1.49,0.62,2.86,1.49,4.06,2.55c3.04,2.7,4.96,6.63,4.96,11V234.57z"/>
<path class="st0" d="M292.88,154.1l-98.99,47.36l-1.18,0.56l-1.19-0.56L92.74,154.2c1.18-1.06,2.53-1.94,4.01-2.58l95.96,45.91
	l96.11-45.98C290.31,152.17,291.68,153.04,292.88,154.1z"/>
<path class="st0" d="M92.37,149.53l4.38,2.09c-1.48,0.64-2.83,1.52-4.01,2.58l-2.12-1.01L92.37,149.53z"/>
<path class="st0" d="M294.79,153.19l-1.91,0.91c-1.2-1.06-2.57-1.93-4.06-2.55l4.22-2.02L294.79,153.19z"/>
</svg>
